<mxfile host="app.diagrams.net" agent="Mozilla/5.0 (Windows NT 10.0; Win64; x64) AppleWebKit/537.36 (KHTML, like Gecko) Chrome/128.0.0.0 YaBrowser/24.10.0.0 Safari/537.36" version="25.0.1">
  <diagram name="Страница — 1" id="oqnPVAzyXjGhagcEmaU0">
    <mxGraphModel dx="867" dy="1336" grid="1" gridSize="10" guides="1" tooltips="1" connect="1" arrows="1" fold="1" page="1" pageScale="1" pageWidth="827" pageHeight="1169" math="0" shadow="0">
      <root>
        <mxCell id="0" />
        <mxCell id="1" parent="0" />
        <mxCell id="Z_VaZrFOlMUJO1jApsui-16" style="edgeStyle=orthogonalEdgeStyle;rounded=0;orthogonalLoop=1;jettySize=auto;html=1;exitX=0.5;exitY=0.5;exitDx=0;exitDy=0;exitPerimeter=0;entryX=0.5;entryY=1;entryDx=0;entryDy=0;" edge="1" parent="1" source="Z_VaZrFOlMUJO1jApsui-1" target="Z_VaZrFOlMUJO1jApsui-15">
          <mxGeometry relative="1" as="geometry">
            <Array as="points">
              <mxPoint x="70" y="180" />
            </Array>
          </mxGeometry>
        </mxCell>
        <mxCell id="Z_VaZrFOlMUJO1jApsui-37" style="edgeStyle=orthogonalEdgeStyle;rounded=0;orthogonalLoop=1;jettySize=auto;html=1;exitX=0.5;exitY=0.5;exitDx=0;exitDy=0;exitPerimeter=0;entryX=0;entryY=0.5;entryDx=0;entryDy=0;" edge="1" parent="1" source="Z_VaZrFOlMUJO1jApsui-1" target="Z_VaZrFOlMUJO1jApsui-35">
          <mxGeometry relative="1" as="geometry" />
        </mxCell>
        <mxCell id="Z_VaZrFOlMUJO1jApsui-38" style="edgeStyle=orthogonalEdgeStyle;rounded=0;orthogonalLoop=1;jettySize=auto;html=1;exitX=0.5;exitY=0.5;exitDx=0;exitDy=0;exitPerimeter=0;entryX=0;entryY=0.5;entryDx=0;entryDy=0;" edge="1" parent="1" source="Z_VaZrFOlMUJO1jApsui-1" target="Z_VaZrFOlMUJO1jApsui-4">
          <mxGeometry relative="1" as="geometry" />
        </mxCell>
        <mxCell id="Z_VaZrFOlMUJO1jApsui-39" style="edgeStyle=orthogonalEdgeStyle;rounded=0;orthogonalLoop=1;jettySize=auto;html=1;exitX=0.5;exitY=0.5;exitDx=0;exitDy=0;exitPerimeter=0;entryX=0;entryY=0.5;entryDx=0;entryDy=0;" edge="1" parent="1" source="Z_VaZrFOlMUJO1jApsui-1" target="Z_VaZrFOlMUJO1jApsui-5">
          <mxGeometry relative="1" as="geometry" />
        </mxCell>
        <mxCell id="Z_VaZrFOlMUJO1jApsui-40" style="edgeStyle=orthogonalEdgeStyle;rounded=0;orthogonalLoop=1;jettySize=auto;html=1;exitX=0.5;exitY=0.5;exitDx=0;exitDy=0;exitPerimeter=0;entryX=0;entryY=0.5;entryDx=0;entryDy=0;" edge="1" parent="1" source="Z_VaZrFOlMUJO1jApsui-1" target="Z_VaZrFOlMUJO1jApsui-34">
          <mxGeometry relative="1" as="geometry" />
        </mxCell>
        <mxCell id="Z_VaZrFOlMUJO1jApsui-1" value="Клиент" style="shape=umlActor;verticalLabelPosition=bottom;verticalAlign=top;html=1;outlineConnect=0;" vertex="1" parent="1">
          <mxGeometry x="110" y="150" width="30" height="60" as="geometry" />
        </mxCell>
        <mxCell id="Z_VaZrFOlMUJO1jApsui-13" style="edgeStyle=orthogonalEdgeStyle;rounded=0;orthogonalLoop=1;jettySize=auto;html=1;exitX=0.5;exitY=0.5;exitDx=0;exitDy=0;exitPerimeter=0;entryX=0.5;entryY=1;entryDx=0;entryDy=0;" edge="1" parent="1" source="Z_VaZrFOlMUJO1jApsui-2" target="Z_VaZrFOlMUJO1jApsui-11">
          <mxGeometry relative="1" as="geometry">
            <Array as="points">
              <mxPoint x="60" y="560" />
            </Array>
          </mxGeometry>
        </mxCell>
        <mxCell id="Z_VaZrFOlMUJO1jApsui-14" style="edgeStyle=orthogonalEdgeStyle;rounded=0;orthogonalLoop=1;jettySize=auto;html=1;exitX=0.5;exitY=0.5;exitDx=0;exitDy=0;exitPerimeter=0;entryX=0.5;entryY=0;entryDx=0;entryDy=0;" edge="1" parent="1" source="Z_VaZrFOlMUJO1jApsui-2" target="Z_VaZrFOlMUJO1jApsui-12">
          <mxGeometry relative="1" as="geometry">
            <Array as="points">
              <mxPoint x="60" y="560" />
            </Array>
          </mxGeometry>
        </mxCell>
        <mxCell id="Z_VaZrFOlMUJO1jApsui-36" style="edgeStyle=orthogonalEdgeStyle;rounded=0;orthogonalLoop=1;jettySize=auto;html=1;exitX=0.5;exitY=0.5;exitDx=0;exitDy=0;exitPerimeter=0;entryX=0.5;entryY=1;entryDx=0;entryDy=0;" edge="1" parent="1" source="Z_VaZrFOlMUJO1jApsui-2" target="Z_VaZrFOlMUJO1jApsui-35">
          <mxGeometry relative="1" as="geometry" />
        </mxCell>
        <mxCell id="Z_VaZrFOlMUJO1jApsui-2" value="Туроператор" style="shape=umlActor;verticalLabelPosition=bottom;verticalAlign=top;html=1;outlineConnect=0;" vertex="1" parent="1">
          <mxGeometry x="110" y="530" width="30" height="60" as="geometry" />
        </mxCell>
        <mxCell id="Z_VaZrFOlMUJO1jApsui-10" style="edgeStyle=orthogonalEdgeStyle;rounded=0;orthogonalLoop=1;jettySize=auto;html=1;exitX=0.5;exitY=0.5;exitDx=0;exitDy=0;exitPerimeter=0;entryX=0.5;entryY=1;entryDx=0;entryDy=0;" edge="1" parent="1" source="Z_VaZrFOlMUJO1jApsui-3" target="Z_VaZrFOlMUJO1jApsui-9">
          <mxGeometry relative="1" as="geometry">
            <Array as="points">
              <mxPoint x="750" y="180" />
            </Array>
          </mxGeometry>
        </mxCell>
        <mxCell id="Z_VaZrFOlMUJO1jApsui-41" style="edgeStyle=orthogonalEdgeStyle;rounded=0;orthogonalLoop=1;jettySize=auto;html=1;entryX=1;entryY=0.5;entryDx=0;entryDy=0;" edge="1" parent="1" target="Z_VaZrFOlMUJO1jApsui-4">
          <mxGeometry relative="1" as="geometry">
            <mxPoint x="675" y="180" as="sourcePoint" />
          </mxGeometry>
        </mxCell>
        <mxCell id="Z_VaZrFOlMUJO1jApsui-42" style="edgeStyle=orthogonalEdgeStyle;rounded=0;orthogonalLoop=1;jettySize=auto;html=1;exitX=0.5;exitY=0.5;exitDx=0;exitDy=0;exitPerimeter=0;entryX=1;entryY=0.5;entryDx=0;entryDy=0;" edge="1" parent="1" source="Z_VaZrFOlMUJO1jApsui-3" target="Z_VaZrFOlMUJO1jApsui-5">
          <mxGeometry relative="1" as="geometry">
            <Array as="points">
              <mxPoint x="567" y="180" />
              <mxPoint x="567" y="190" />
            </Array>
          </mxGeometry>
        </mxCell>
        <mxCell id="Z_VaZrFOlMUJO1jApsui-43" style="edgeStyle=orthogonalEdgeStyle;rounded=0;orthogonalLoop=1;jettySize=auto;html=1;exitX=0.5;exitY=0.5;exitDx=0;exitDy=0;exitPerimeter=0;entryX=1;entryY=0.5;entryDx=0;entryDy=0;" edge="1" parent="1" source="Z_VaZrFOlMUJO1jApsui-3" target="Z_VaZrFOlMUJO1jApsui-34">
          <mxGeometry relative="1" as="geometry">
            <Array as="points">
              <mxPoint x="580" y="180" />
              <mxPoint x="580" y="330" />
            </Array>
          </mxGeometry>
        </mxCell>
        <mxCell id="Z_VaZrFOlMUJO1jApsui-45" style="edgeStyle=orthogonalEdgeStyle;rounded=0;orthogonalLoop=1;jettySize=auto;html=1;exitX=0.5;exitY=0.5;exitDx=0;exitDy=0;exitPerimeter=0;" edge="1" parent="1" source="Z_VaZrFOlMUJO1jApsui-3" target="Z_VaZrFOlMUJO1jApsui-44">
          <mxGeometry relative="1" as="geometry" />
        </mxCell>
        <mxCell id="Z_VaZrFOlMUJO1jApsui-3" value="Турагент" style="shape=umlActor;verticalLabelPosition=bottom;verticalAlign=top;html=1;outlineConnect=0;" vertex="1" parent="1">
          <mxGeometry x="660" y="150" width="30" height="60" as="geometry" />
        </mxCell>
        <mxCell id="Z_VaZrFOlMUJO1jApsui-4" value="просмотр информации о туре" style="ellipse;whiteSpace=wrap;html=1;" vertex="1" parent="1">
          <mxGeometry x="360" y="20" width="120" height="80" as="geometry" />
        </mxCell>
        <mxCell id="Z_VaZrFOlMUJO1jApsui-5" value="оформление договора" style="ellipse;whiteSpace=wrap;html=1;" vertex="1" parent="1">
          <mxGeometry x="354" y="150" width="120" height="80" as="geometry" />
        </mxCell>
        <mxCell id="Z_VaZrFOlMUJO1jApsui-9" value="прогнозирование продаж" style="ellipse;whiteSpace=wrap;html=1;" vertex="1" parent="1">
          <mxGeometry x="690" y="30" width="120" height="80" as="geometry" />
        </mxCell>
        <mxCell id="Z_VaZrFOlMUJO1jApsui-11" value="добавление тура" style="ellipse;whiteSpace=wrap;html=1;" vertex="1" parent="1">
          <mxGeometry y="360" width="120" height="80" as="geometry" />
        </mxCell>
        <mxCell id="Z_VaZrFOlMUJO1jApsui-12" value="формирование тура" style="ellipse;whiteSpace=wrap;html=1;" vertex="1" parent="1">
          <mxGeometry y="700" width="120" height="80" as="geometry" />
        </mxCell>
        <mxCell id="Z_VaZrFOlMUJO1jApsui-15" value="оставить пожелание на сайте" style="ellipse;whiteSpace=wrap;html=1;" vertex="1" parent="1">
          <mxGeometry x="10" y="10" width="120" height="80" as="geometry" />
        </mxCell>
        <mxCell id="Z_VaZrFOlMUJO1jApsui-34" value="поиск тура" style="ellipse;whiteSpace=wrap;html=1;" vertex="1" parent="1">
          <mxGeometry x="354" y="290" width="120" height="80" as="geometry" />
        </mxCell>
        <mxCell id="Z_VaZrFOlMUJO1jApsui-35" value="реализация тура" style="ellipse;whiteSpace=wrap;html=1;" vertex="1" parent="1">
          <mxGeometry x="170" y="370" width="120" height="80" as="geometry" />
        </mxCell>
        <mxCell id="Z_VaZrFOlMUJO1jApsui-44" value="бронирование тура" style="ellipse;whiteSpace=wrap;html=1;" vertex="1" parent="1">
          <mxGeometry x="615" y="390" width="120" height="80" as="geometry" />
        </mxCell>
      </root>
    </mxGraphModel>
  </diagram>
</mxfile>
